 <svg  version="1.0" xmlns="http://www.w3.org/2000/svg"  width="300.000000pt" height="300.000000pt" viewBox="0 0 300.000000 300.000000"  preserveAspectRatio="xMidYMid meet">  <g transform="translate(0.000000,300.000000) scale(0.100000,-0.100000)" fill="#ff0000" stroke="none"> <path d="M1316 2719 c-383 -56 -723 -304 -900 -656 -153 -306 -154 -696 -2 -1019 192 -406 580 -661 1037 -681 465 -20 890 219 1112 627 81 147 137 379 137 565 0 518 -356 986 -855 1126 -163 45 -374 61 -529 38z m385 -144 c131 -25 318 -100 389 -155 l25 -20 -38 0 c-38 0 -217 33 -385 72 -117 26 -127 23 -260 -72 -94 -67 -102 -75 -102 -105 0 -54 8 -64 43 -58 25 4 37 -1 56 -21 34 -37 76 -35 96 4 8 16 15 45 15 65 0 19 4 35 8 35 10 0 92 -60 92 -67 0 -13 -77 -84 -107 -98 -44 -21 -92 -7 -116 35 -23 39 -47 39 -47 2 0 -16 -8 -36 -17 -44 -41 -35 -114 -69 -162 -75 -68 -8 -75 -22 -26 -49 11 -6 21 -19 23 -28 7 -32 -17 -46 -79 -46 -52 0 -60 -3 -76 -26 -42 -64 -10 -134 61 -134 50 0 93 25 136 78 46 58 79 69 135 48 24 -10 56 -31 69 -47 21 -24 23 -34 15 -61 -11 -40 -7 -43 33 -32 50 14 49 49 -1 110 -37 44 -51 74 -35 74 4 0 22 -9 40 -21 38 -23 74 -76 74 -109 0 -25 26 -60 45 -60 6 0 18 14 26 32 8 17 20 34 26 36 13 4 17 -3 27 -48 4 -21 18 -30 72 -50 36 -14 68 -30 71 -36 2 -7 -3 -29 -11 -49 -15 -35 -18 -37 -50 -32 -18 3 -62 17 -98 31 -78 31 -99 32 -123 6 -24 -27 -34 -26 -104 15 -45 27 -62 43 -67 63 -14 67 -33 72 -157 43 -46 -12 -99 -21 -117 -21 -18 0 -47 -7 -65 -16 -42 -19 -171 -172 -196 -232 -34 -79 -22 -195 28 -266 55 -79 157 -113 256 -85 34 9 43 7 100 -23 l62 -33 5 -60 c4 -44 13 -72 34 -103 29 -42 29 -43 17 -110 l-13 -67 58 -100 c32 -55 62 -103 68 -107 18 -12 82 4 161 42 62 30 84 46 98 73 10 19 35 44 56 55 65 37 72 50 69 136 l-3 77 50 47 c28 26 72 64 97 84 42 34 98 122 85 134 -3 3 -25 8 -49 11 -27 4 -53 15 -71 31 -36 34 -81 114 -107 191 -41 122 -18 116 59 -14 26 -45 51 -98 55 -118 11 -60 43 -65 132 -19 73 37 156 147 140 187 -3 10 -19 15 -45 15 -31 0 -46 7 -70 31 -32 31 -41 69 -18 69 7 0 34 -13 59 -29 25 -16 69 -34 99 -40 29 -7 73 -23 97 -37 41 -24 45 -25 68 -10 20 14 24 24 24 69 0 67 20 147 55 221 33 69 35 66 55 -57 17 -103 7 -307 -19 -412 -76 -305 -275 -549 -566 -691 -245 -119 -494 -142 -750 -69 -354 101 -609 345 -725 693 -40 121 -54 230 -47 380 6 147 29 246 87 369 124 264 334 456 610 555 156 56 398 75 561 43z"/> <path d="M1153 2288 c-6 -7 -18 -28 -27 -46 -9 -18 -28 -38 -41 -44 -33 -15 -32 -46 1 -54 14 -4 30 -2 37 5 13 13 44 15 51 2 4 -5 -3 -7 -14 -4 -15 4 -20 0 -20 -16 0 -36 82 -43 104 -9 8 13 6 25 -9 50 -11 18 -22 53 -25 78 -4 36 -9 46 -26 48 -11 2 -25 -3 -31 -10z"/> </g> </svg> 