<?xml version="1.0" standalone="no"?>
<!DOCTYPE svg PUBLIC "-//W3C//DTD SVG 20010904//EN"
 "http://www.w3.org/TR/2001/REC-SVG-20010904/DTD/svg10.dtd">
<svg version="1.0" xmlns="http://www.w3.org/2000/svg"
 width="246.000000pt" height="262.000000pt" viewBox="0 0 246.000000 262.000000"
 preserveAspectRatio="xMidYMid meet">

<g transform="translate(0.000000,262.000000) scale(0.100000,-0.100000)"
fill="#000000" stroke="none">
<path d="M925 2385 c-315 -68 -567 -347 -615 -680 -42 -301 76 -600 310 -780
242 -186 550 -214 828 -74 45 23 84 40 86 38 59 -77 415 -494 429 -504 36 -25
85 -19 118 14 34 34 37 72 11 116 -11 17 -118 127 -240 244 l-221 214 59 71
c183 222 242 503 164 772 -82 284 -295 492 -578 564 -93 23 -256 26 -351 5z
m315 -96 c76 -15 223 -88 297 -148 114 -94 210 -259 239 -412 48 -250 -26
-492 -205 -669 -121 -120 -263 -185 -431 -196 -329 -24 -635 204 -720 536 -27
102 -27 258 0 363 62 247 237 435 475 511 109 35 215 40 345 15z"/>
<path d="M1050 2070 c-8 -5 -24 -28 -35 -50 -14 -30 -34 -49 -68 -68 -44 -24
-51 -25 -80 -13 -18 8 -45 14 -62 15 -29 1 -30 0 -28 -46 l1 -47 -69 6 c-85 7
-119 -10 -119 -60 0 -63 10 -78 66 -103 44 -19 60 -34 93 -86 36 -56 41 -70
41 -123 0 -33 -7 -85 -16 -115 -9 -30 -17 -73 -18 -95 -1 -40 0 -40 64 -72 36
-18 78 -33 93 -33 16 0 51 -10 78 -21 79 -34 159 -16 159 37 0 40 60 58 103
30 12 -8 38 -18 58 -21 34 -6 41 -3 92 42 30 26 58 54 61 61 7 15 -15 62 -37
80 -11 9 -13 29 -9 81 4 65 3 71 -23 97 l-28 27 26 19 c36 26 63 73 87 152 14
45 18 71 11 83 -5 9 -37 25 -71 35 -84 23 -162 71 -233 141 -47 45 -65 57 -90
57 -18 0 -39 -5 -47 -10z m95 -82 c56 -58 160 -123 228 -143 31 -9 59 -21 63
-26 12 -21 -30 -119 -72 -169 -33 -39 -44 -60 -44 -86 0 -28 4 -35 26 -40 26
-7 26 -8 19 -70 -6 -55 -4 -68 14 -93 27 -37 26 -39 -6 -73 -32 -34 -46 -34
-108 -7 -46 20 -49 20 -92 4 -50 -19 -83 -50 -83 -77 0 -24 -21 -23 -105 7
-38 13 -78 25 -88 25 -10 0 -36 9 -58 21 -31 15 -39 24 -34 37 22 57 45 164
45 207 0 44 -7 62 -53 135 -46 73 -59 87 -96 101 -45 16 -66 40 -57 65 7 17
59 18 122 3 59 -15 78 -1 70 53 -6 36 -5 38 13 28 38 -20 84 -11 149 30 34 22
62 47 62 56 0 23 19 54 33 54 7 0 30 -19 52 -42z"/>
<path d="M1052 1800 c-22 -9 -42 -46 -42 -76 0 -25 47 -64 78 -64 36 0 72 37
72 74 0 31 -40 76 -67 75 -10 0 -28 -4 -41 -9z"/>
<path d="M1077 1502 c-51 -57 21 -140 82 -95 32 24 38 56 17 89 -20 30 -75 33
-99 6z"/>
</g>
</svg>
