<?xml version="1.0" standalone="no"?>
<!DOCTYPE svg PUBLIC "-//W3C//DTD SVG 20010904//EN"
 "http://www.w3.org/TR/2001/REC-SVG-20010904/DTD/svg10.dtd">
<svg version="1.0" xmlns="http://www.w3.org/2000/svg"
 width="783.000000pt" height="834.000000pt" viewBox="0 0 783.000000 834.000000"
 preserveAspectRatio="xMidYMid meet">
<metadata>
Created by potrace 1.10, written by Peter Selinger 2001-2011
</metadata>
<g transform="translate(0.000000,834.000000) scale(0.100000,-0.100000)"
fill="#ff0000" stroke="none">
<path d="M3345 7500 c-162 -37 -256 -85 -565 -289 -30 -20 -57 -38 -60 -41 -7
-7 -194 -131 -249 -165 -50 -31 -119 -41 -201 -28 l-55 8 -5 65 c-5 67 -31
126 -60 135 -111 33 -504 76 -563 61 -35 -8 -54 -38 -66 -106 -6 -30 -20 -95
-31 -145 -12 -49 -26 -112 -31 -140 -29 -146 -39 -198 -59 -285 -26 -116 -36
-167 -50 -245 -6 -33 -15 -76 -20 -95 -5 -19 -19 -80 -30 -135 -12 -55 -26
-113 -30 -130 -5 -16 -12 -56 -16 -88 -4 -32 -11 -60 -15 -63 -5 -3 -9 -22 -9
-42 0 -43 49 -112 79 -112 10 0 21 -3 25 -7 4 -5 33 -13 64 -20 31 -6 82 -19
112 -28 95 -29 183 -47 252 -52 80 -5 106 8 133 68 17 37 22 40 49 36 31 -5
96 -23 196 -53 30 -9 78 -22 105 -28 28 -6 55 -14 60 -17 6 -4 30 -10 55 -14
25 -4 50 -11 55 -15 10 -8 74 -24 155 -40 59 -11 194 -12 245 0 154 34 216 68
628 344 203 135 379 254 392 263 12 10 33 25 45 33 118 79 189 190 214 333 8
41 12 43 52 22 16 -8 36 -15 45 -15 8 0 19 -4 25 -9 5 -5 25 -14 44 -19 19 -6
100 -34 180 -62 387 -136 435 -149 555 -150 179 0 312 80 377 227 18 40 20 60
15 142 -5 109 -18 140 -81 205 -48 50 -90 73 -281 156 -11 5 -55 25 -98 44
-42 20 -79 36 -82 36 -3 0 -36 14 -195 87 -30 14 -68 31 -85 38 -16 7 -65 29
-108 49 -44 20 -81 36 -85 36 -3 0 -35 14 -71 31 -65 30 -102 47 -151 67 -40
17 -91 39 -142 61 -26 12 -53 21 -60 21 -8 0 -18 4 -24 9 -12 10 -98 38 -194
62 -99 25 -275 24 -385 -1z m429 -244 c71 -24 115 -42 201 -81 17 -7 48 -21
70 -30 22 -9 56 -24 75 -32 19 -9 49 -22 65 -29 56 -22 80 -33 147 -63 37 -17
91 -40 120 -52 29 -11 76 -31 103 -44 28 -12 73 -33 100 -45 28 -12 64 -28 82
-36 17 -8 33 -14 36 -14 3 0 36 -14 74 -31 37 -17 82 -37 100 -45 17 -8 33
-14 36 -14 20 0 137 -63 157 -85 32 -34 33 -103 3 -143 -43 -58 -148 -91 -201
-63 -9 5 -48 19 -87 31 -38 12 -84 28 -102 36 -17 8 -39 14 -50 14 -10 0 -27
7 -37 15 -11 8 -29 15 -41 15 -12 0 -25 4 -30 8 -6 5 -44 18 -85 31 -41 13
-84 27 -95 32 -34 14 -109 40 -135 46 -14 3 -29 9 -35 13 -5 4 -26 11 -45 15
-19 4 -41 12 -50 16 -36 21 -390 131 -438 136 -89 10 -202 -28 -322 -107 -417
-277 -502 -342 -512 -394 -7 -35 19 -82 57 -106 40 -24 66 -25 113 -3 34 16
247 156 402 265 124 86 141 97 190 113 66 22 119 6 178 -52 39 -40 42 -46 42
-97 0 -50 -3 -57 -42 -98 -24 -24 -230 -167 -458 -319 -501 -332 -455 -304
-529 -329 -99 -33 -197 -26 -401 30 -19 5 -57 14 -85 19 -78 14 -268 62 -287
72 -10 5 -26 9 -37 9 -44 0 -47 53 -11 175 5 17 12 55 15 85 4 30 10 64 15 75
5 11 16 58 26 105 9 47 21 103 25 125 5 22 15 74 23 115 41 207 56 241 97 220
24 -13 246 -13 254 0 3 6 15 10 26 10 11 0 50 16 87 36 69 38 89 50 357 226
260 171 327 209 415 236 61 19 82 20 215 18 110 -3 142 -7 209 -30z m-1854
-236 c41 -5 77 -9 79 -9 5 -1 -19 -136 -44 -241 -38 -162 -45 -198 -45 -221 0
-14 -3 -29 -7 -33 -5 -4 -13 -40 -20 -79 -6 -40 -21 -110 -32 -157 -11 -47
-23 -105 -27 -130 -3 -25 -8 -52 -12 -60 -3 -8 -11 -44 -18 -80 -24 -122 -51
-231 -61 -241 -9 -9 -95 4 -138 21 -11 5 -44 14 -73 20 -28 7 -55 17 -59 23
-8 14 -5 76 5 91 4 6 12 40 19 76 6 36 16 83 21 105 23 91 42 184 42 208 0 14
4 28 9 31 5 3 12 34 16 68 3 35 12 81 20 103 7 22 21 85 30 140 9 55 21 107
25 116 4 8 11 47 15 84 4 38 14 84 21 102 8 18 14 43 14 57 0 31 8 33 83 24
34 -5 96 -13 137 -18z"/>
<path d="M3380 5241 c-152 -45 -258 -147 -309 -299 -26 -77 -29 -243 -6 -299
8 -19 15 -42 15 -50 0 -15 31 -90 56 -136 9 -15 21 -38 28 -50 109 -202 381
-480 651 -665 49 -34 98 -62 109 -62 34 0 203 118 366 256 90 77 252 239 311
314 76 95 169 267 184 340 4 19 12 41 18 49 16 20 16 266 0 282 -7 7 -13 19
-13 27 0 23 -41 103 -66 131 -13 14 -24 29 -24 33 0 7 -101 85 -136 104 -33
19 -142 44 -190 44 -141 0 -296 -90 -390 -226 -21 -30 -42 -54 -48 -54 -6 0
-22 17 -36 38 -128 193 -330 280 -520 223z"/>
<path d="M5035 3589 c-22 -5 -44 -14 -49 -19 -6 -6 -16 -10 -24 -10 -21 0
-128 -54 -277 -138 -71 -41 -159 -90 -195 -110 -36 -20 -105 -60 -153 -89 -48
-29 -90 -53 -92 -53 -2 0 -43 -27 -92 -59 -93 -63 -176 -142 -210 -201 -24
-41 -51 -122 -55 -165 -3 -27 -6 -30 -33 -27 -16 2 -34 7 -40 11 -5 4 -59 25
-120 45 -60 21 -119 42 -130 47 -20 9 -45 17 -165 58 -36 12 -74 26 -85 31
-34 14 -147 47 -208 60 -144 33 -327 -68 -400 -220 -33 -68 -31 -216 3 -283
52 -103 95 -130 545 -336 50 -23 104 -48 120 -56 75 -35 206 -96 268 -124 37
-17 95 -44 130 -60 34 -16 85 -38 112 -50 28 -12 59 -26 70 -31 21 -10 85 -36
150 -63 103 -42 237 -71 300 -64 84 9 161 24 183 36 11 6 28 11 37 11 43 0
389 178 545 280 8 6 26 16 40 22 14 7 63 35 110 63 127 77 182 90 273 64 l37
-10 0 -63 c0 -96 15 -107 210 -137 36 -6 74 -14 85 -19 41 -17 212 -50 262
-50 80 0 102 28 138 175 10 39 21 90 26 115 5 25 15 77 23 115 9 39 20 95 26
125 5 30 17 78 25 105 7 28 21 88 30 135 9 47 20 99 25 115 5 17 11 50 15 75
4 25 13 68 20 95 24 87 45 183 45 208 0 12 5 28 11 34 6 6 11 40 11 77 1 57
-2 70 -23 92 -34 36 -80 54 -189 70 -90 14 -122 19 -265 43 -33 6 -100 10
-150 10 -55 -1 -109 5 -140 14 -27 9 -86 23 -130 32 -44 9 -94 20 -110 25 -17
5 -57 14 -90 19 -33 6 -98 17 -145 25 -93 17 -243 19 -305 5z m345 -239 c30
-6 89 -17 130 -25 41 -8 104 -21 140 -30 36 -9 92 -21 125 -27 82 -15 89 -23
75 -84 -7 -27 -16 -62 -20 -79 -5 -16 -12 -52 -15 -80 -4 -27 -9 -57 -13 -65
-3 -8 -11 -42 -18 -75 -6 -33 -19 -91 -28 -130 -10 -38 -22 -99 -29 -135 -7
-36 -15 -69 -19 -75 -3 -5 -9 -40 -13 -78 -4 -37 -12 -71 -19 -75 -6 -4 -76
-7 -156 -7 -93 0 -152 -4 -165 -12 -11 -6 -39 -21 -62 -32 -56 -27 -57 -27
-228 -129 -82 -48 -157 -91 -165 -95 -8 -4 -42 -23 -75 -42 -162 -95 -348
-165 -440 -165 -43 0 -124 20 -167 41 -10 5 -23 9 -29 9 -7 0 -30 9 -53 19
-47 22 -171 78 -201 91 -28 12 -142 64 -217 99 -35 16 -85 39 -113 51 -50 22
-134 60 -230 105 -50 23 -183 85 -240 110 -16 8 -61 28 -99 45 -98 45 -136 87
-136 154 0 33 7 45 40 77 57 55 133 63 222 25 18 -8 71 -28 118 -46 99 -37
153 -57 197 -76 17 -8 37 -14 45 -14 8 0 18 -4 24 -8 5 -5 56 -26 114 -47 58
-20 119 -44 137 -51 17 -8 37 -14 45 -14 8 0 18 -4 23 -8 6 -5 39 -19 75 -32
36 -12 79 -29 97 -36 17 -8 36 -14 42 -14 6 0 25 -6 43 -14 78 -34 151 -49
213 -44 52 5 82 16 181 68 66 35 190 99 278 144 226 116 264 155 236 241 -21
65 -87 79 -180 38 -93 -41 -312 -150 -365 -183 -78 -47 -157 -80 -191 -80 -68
0 -158 75 -174 144 -14 63 18 114 110 178 70 48 284 178 294 178 3 0 34 17 69
39 35 21 92 54 128 74 35 19 80 44 99 55 19 11 81 44 136 72 153 77 237 87
424 50z m870 -110 c47 -7 91 -18 98 -25 16 -15 9 -65 -32 -240 -14 -60 -26
-119 -26 -131 0 -11 -3 -24 -7 -28 -5 -4 -13 -38 -20 -74 -6 -37 -21 -110 -33
-162 -40 -171 -55 -245 -84 -392 -7 -37 -19 -74 -26 -83 -14 -17 -51 -20 -66
-5 -5 5 -45 14 -88 20 -114 16 -126 22 -126 65 0 19 4 43 10 53 5 9 16 53 25
97 9 44 21 98 26 120 4 22 15 74 23 115 8 41 25 116 36 165 35 149 41 177 55
250 25 126 55 256 61 267 4 5 24 7 48 4 22 -3 79 -10 126 -16z"/>
</g>
</svg>
