 <svg  version="1.0" xmlns="http://www.w3.org/2000/svg"  width="300.000000pt" height="300.000000pt" viewBox="0 0 300.000000 300.000000"  preserveAspectRatio="xMidYMid meet">  <g transform="translate(0.000000,300.000000) scale(0.100000,-0.100000)" fill="#ff0000" stroke="none"> <path d="M1310 2640 c-164 -43 -316 -143 -410 -269 -97 -129 -146 -257 -157 -413 -16 -234 83 -497 364 -968 175 -292 323 -531 341 -552 9 -11 29 -18 53 -18 48 0 45 -4 240 315 335 550 423 721 491 960 33 117 33 318 0 425 -80 252 -258 431 -507 510 -103 33 -311 38 -415 10z m344 -175 c154 -40 271 -132 362 -282 47 -79 68 -180 62 -307 -6 -131 -50 -264 -156 -470 -78 -152 -409 -716 -421 -716 -4 0 -85 132 -181 292 -307 514 -389 699 -398 898 -7 177 36 293 159 424 72 77 148 125 249 157 71 23 243 25 324 4z"/> <path d="M1427 2226 c-99 -27 -184 -113 -213 -213 -20 -67 -14 -125 19 -197 34 -74 70 -111 139 -145 186 -93 403 31 425 244 20 193 -182 364 -370 311z m127 -180 c35 -15 66 -66 66 -111 0 -45 -28 -85 -74 -105 -63 -29 -121 -7 -150 55 -22 45 -20 76 7 116 38 57 87 72 151 45z"/> </g> </svg> 