 <svg  version="1.0" xmlns="http://www.w3.org/2000/svg"  width="741.000000pt" height="756.000000pt" viewBox="0 0 741.000000 756.000000"  preserveAspectRatio="xMidYMid meet">  <g transform="translate(0.000000,756.000000) scale(0.100000,-0.100000)" fill="#ff0000" stroke="none"> <path d="M3345 7235 c-33 -8 -72 -14 -86 -15 -32 0 -165 -40 -284 -84 -43 -16 -204 -99 -256 -131 -116 -73 -299 -233 -384 -336 -204 -245 -334 -547 -379 -879 -21 -146 -20 -183 3 -360 21 -155 35 -225 57 -278 8 -18 14 -39 14 -47 0 -8 7 -31 16 -52 9 -21 22 -51 29 -68 21 -50 85 -178 105 -210 11 -16 23 -37 27 -45 18 -39 137 -184 218 -266 160 -161 320 -268 549 -368 32 -14 65 -26 72 -26 7 0 28 -6 46 -14 18 -8 60 -21 93 -29 278 -71 641 -61 890 24 17 6 44 14 60 19 44 11 192 78 250 113 11 6 43 25 70 41 141 84 336 259 438 393 26 34 47 64 47 67 0 2 17 31 38 63 71 107 140 257 172 368 4 17 13 44 18 60 28 81 38 143 61 346 10 94 9 112 -19 339 -14 111 -39 208 -76 298 -8 18 -14 37 -14 42 0 10 -90 196 -113 235 -140 233 -359 457 -569 580 -39 23 -226 114 -263 128 -22 8 -58 21 -80 30 -45 16 -107 32 -210 54 -101 21 -461 26 -540 8z"/> <path d="M3285 3639 c-22 -5 -74 -13 -115 -18 -157 -20 -333 -62 -495 -118 -38 -14 -83 -28 -100 -33 -64 -17 -342 -145 -435 -200 -287 -170 -427 -277 -626 -475 -187 -186 -313 -346 -442 -563 -71 -120 -153 -286 -197 -402 -9 -25 -23 -58 -31 -73 -8 -16 -14 -35 -14 -42 0 -8 -6 -29 -14 -47 -29 -67 -94 -314 -106 -403 -4 -27 -12 -77 -18 -110 -61 -320 -5 -501 185 -594 l62 -31 2655 0 c2491 0 2658 1 2693 17 80 37 150 101 187 173 40 79 50 155 37 282 -15 137 -38 275 -57 344 -8 28 -14 59 -14 69 0 9 -6 38 -14 64 -8 25 -22 73 -31 106 -10 33 -23 77 -31 98 -8 20 -20 54 -28 75 -48 128 -61 159 -126 292 -54 111 -59 121 -102 188 -16 24 -28 45 -28 47 0 8 -65 101 -139 200 -113 151 -241 295 -350 392 -98 89 -111 100 -191 164 -171 138 -489 316 -740 414 -25 9 -56 22 -70 27 -14 6 -38 14 -55 18 -16 5 -43 13 -60 18 -116 40 -333 89 -450 102 -38 5 -97 13 -130 19 -71 13 -551 13 -610 0z"/> </g> </svg> 