<?xml version="1.0" standalone="no"?>
<!DOCTYPE svg PUBLIC "-//W3C//DTD SVG 20010904//EN"
 "http://www.w3.org/TR/2001/REC-SVG-20010904/DTD/svg10.dtd">
<svg version="1.0" xmlns="http://www.w3.org/2000/svg"
 width="261.000000pt" height="278.000000pt" viewBox="0 0 261.000000 278.000000"
 preserveAspectRatio="xMidYMid meet">
<metadata>
Created by potrace 1.10, written by Peter Selinger 2001-2011
</metadata>
<g transform="translate(0.000000,278.000000) scale(0.100000,-0.100000)"
fill="#000000" stroke="none">
<path d="M1070 2487 c-30 -13 -100 -53 -155 -90 -79 -53 -108 -67 -137 -67
-33 0 -38 3 -38 23 0 36 -12 44 -74 56 -91 17 -144 14 -150 -6 -3 -10 -28
-124 -56 -253 -59 -275 -64 -254 70 -285 l82 -19 17 23 17 22 109 -30 c179
-51 197 -47 413 98 155 103 186 132 197 181 l6 29 129 -45 c139 -48 183 -53
236 -28 62 29 84 116 44 166 -20 26 -431 215 -515 237 -64 17 -135 13 -195
-12z m399 -153 c124 -53 234 -104 245 -114 14 -14 16 -22 7 -38 -21 -40 -45
-36 -263 38 -163 56 -218 71 -246 67 -35 -6 -205 -111 -238 -148 -14 -15 -16
-24 -8 -37 20 -32 46 -24 143 41 53 36 103 66 111 68 48 9 87 -43 59 -78 -15
-18 -256 -181 -306 -206 -18 -10 -49 -17 -70 -17 -32 0 -230 44 -238 52 -2 2
11 68 29 148 l31 145 41 -3 c52 -4 92 13 188 77 126 86 162 101 229 101 54 0
85 -10 286 -96z m-801 2 c2 -3 -75 -377 -83 -402 -4 -14 -95 4 -95 18 0 4 16
84 35 176 20 92 38 180 41 195 6 28 7 29 53 22 25 -4 47 -8 49 -9z"/>
<path d="M1124 1749 c-18 -5 -46 -25 -62 -44 -51 -58 -55 -132 -10 -223 26
-54 176 -208 230 -236 l37 -20 76 58 c166 128 244 269 204 373 -25 68 -100
110 -170 96 -19 -4 -50 -23 -74 -48 l-42 -41 -32 37 c-19 23 -46 42 -69 49
-42 11 -46 11 -88 -1z"/>
<path d="M1598 1161 c-134 -71 -246 -141 -267 -166 -11 -14 -23 -39 -26 -55
-4 -17 -10 -30 -14 -30 -4 0 -45 14 -92 31 -132 49 -175 59 -214 48 -49 -14
-85 -61 -85 -113 0 -76 9 -82 314 -220 91 -42 186 -81 210 -87 63 -16 134 8
284 93 135 77 168 83 174 30 3 -26 7 -28 101 -47 90 -18 100 -18 111 -4 6 9
33 116 60 239 43 198 47 223 34 237 -16 16 -140 43 -195 43 -17 0 -69 9 -115
20 -46 11 -111 20 -145 20 -53 0 -73 -6 -135 -39z m247 -51 c53 -11 100 -22
104 -24 4 -3 -7 -68 -23 -145 l-31 -141 -51 0 c-43 0 -65 -8 -161 -64 -157
-90 -194 -103 -250 -88 -54 15 -420 179 -445 200 -34 29 -15 72 30 72 14 0
103 -30 199 -66 96 -36 189 -68 207 -71 25 -4 54 6 132 45 107 54 128 71 122
99 -6 32 -40 26 -139 -22 -106 -53 -137 -55 -157 -10 -10 23 -9 29 11 49 41
41 303 186 336 186 10 0 62 -9 116 -20z m274 -36 c3 -3 -13 -86 -35 -187 l-39
-182 -40 3 c-22 2 -43 7 -48 11 -6 6 51 304 68 359 3 9 17 10 47 6 24 -4 45
-8 47 -10z"/>
</g>
</svg>
