<?xml version="1.0" standalone="no"?>
<!DOCTYPE svg PUBLIC "-//W3C//DTD SVG 20010904//EN"
 "http://www.w3.org/TR/2001/REC-SVG-20010904/DTD/svg10.dtd">
<svg version="1.0" xmlns="http://www.w3.org/2000/svg"
 width="300.000000pt" height="300.000000pt" viewBox="0 0 300.000000 300.000000"
 preserveAspectRatio="xMidYMid meet">
<metadata>
Created by potrace 1.10, written by Peter Selinger 2001-2011
</metadata>
<g transform="translate(0.000000,300.000000) scale(0.100000,-0.100000)"
fill="#ff0000" stroke="none">
<path d="M1327 2480 c-258 -32 -437 -100 -543 -205 -74 -73 -84 -101 -84 -240
l-1 -100 -61 -40 c-75 -49 -147 -119 -164 -162 -10 -23 -14 -86 -14 -226 l0
-193 30 -47 c17 -27 58 -68 95 -95 l65 -47 0 -133 c0 -185 22 -232 150 -317
355 -236 1162 -203 1423 58 69 69 77 99 77 292 0 94 -5 188 -11 209 -15 55
-90 130 -174 175 l-70 37 0 43 0 43 87 47 c106 56 171 110 198 166 18 37 20
62 20 236 l0 196 -31 46 c-17 26 -47 60 -67 77 -82 67 -254 136 -417 165 -104
19 -407 28 -508 15z m425 -115 c292 -38 488 -140 488 -254 0 -74 -141 -168
-322 -215 -151 -39 -258 -49 -450 -43 -242 7 -418 49 -542 128 -128 80 -145
158 -52 234 53 43 169 98 256 120 169 44 424 56 622 30z m-814 -515 c127 -59
267 -91 479 -110 263 -23 579 36 781 147 l42 24 0 -51 c0 -28 -6 -64 -14 -79
-43 -82 -222 -159 -461 -196 -86 -14 -147 -16 -280 -12 -234 7 -386 38 -520
105 -111 55 -155 111 -155 197 l0 47 33 -22 c17 -12 60 -34 95 -50z m-148
-184 c133 -125 424 -206 739 -206 139 0 148 -10 29 -34 -266 -54 -513 -41
-747 39 -121 41 -223 114 -237 170 -10 39 19 90 75 133 l45 34 22 -44 c12 -24
45 -65 74 -92z m-132 -255 c173 -87 351 -124 592 -124 242 1 444 42 624 129
27 13 51 24 53 24 10 0 1 -95 -11 -119 -85 -164 -622 -258 -987 -172 -174 41
-260 81 -322 150 -33 37 -37 47 -37 96 0 30 2 55 5 55 3 0 40 -17 83 -39z
m1447 -125 c61 -40 91 -90 81 -132 -4 -16 -27 -47 -51 -70 -80 -74 -223 -128
-422 -160 -141 -22 -423 -15 -558 14 -103 22 -253 73 -287 96 -27 19 -29 19
68 1 142 -26 309 -35 439 -24 317 27 534 114 629 252 22 31 42 57 45 57 4 0
29 -15 56 -34z m-1281 -346 c60 -41 148 -73 291 -105 101 -23 150 -29 310 -33
292 -7 499 31 674 124 46 24 85 44 87 44 13 0 2 -109 -13 -130 -91 -129 -357
-211 -688 -212 -353 0 -624 81 -704 212 -22 36 -30 130 -12 130 6 0 30 -14 55
-30z"/>
<path d="M1505 2293 c-81 -19 -117 -38 -154 -79 -30 -34 -45 -44 -70 -44 -26
0 -31 -4 -31 -25 0 -21 5 -25 30 -25 21 0 28 -4 24 -14 -3 -8 -15 -16 -27 -18
-14 -2 -23 -11 -25 -24 -2 -17 3 -23 31 -28 18 -3 46 -19 61 -35 49 -51 119
-75 221 -76 86 0 155 16 155 36 0 21 -43 30 -113 23 -55 -5 -81 -3 -110 9 -57
24 -44 47 28 47 43 0 65 9 65 26 0 16 -25 23 -98 26 -80 4 -62 22 28 28 76 5
99 15 100 43 0 4 -36 7 -81 7 -93 0 -99 11 -26 48 40 21 51 23 91 14 36 -8 53
-6 81 6 19 9 35 19 35 23 0 19 -167 44 -215 32z"/>
</g>
</svg>
