 <svg  version="1.0" xmlns="http://www.w3.org/2000/svg"  width="300.000000pt" height="300.000000pt" viewBox="0 0 300.000000 300.000000"  preserveAspectRatio="xMidYMid meet">  <g transform="translate(0.000000,300.000000) scale(0.100000,-0.100000)" fill="#ff0000" stroke="none"> <path d="M875 2541 c-133 -34 -216 -178 -173 -302 44 -131 168 -195 303 -158 61 17 139 101 155 168 27 114 -29 232 -130 275 -46 19 -117 27 -155 17z m122 -101 c98 -44 113 -171 29 -249 -20 -19 -40 -26 -84 -28 -67 -4 -93 7 -134 58 -23 29 -30 47 -30 82 0 121 107 188 219 137z"/> <path d="M1422 2531 c-103 -35 -156 -113 -157 -227 0 -61 4 -77 30 -120 57 -91 180 -137 280 -104 48 16 110 72 138 124 32 62 30 158 -7 220 -34 59 -92 101 -157 115 -63 14 -64 14 -127 -8z m148 -93 c130 -67 95 -262 -49 -276 -66 -6 -93 2 -130 39 -94 94 -28 257 104 259 17 0 51 -10 75 -22z"/> <path d="M2008 2536 c-213 -58 -242 -350 -44 -442 88 -41 184 -28 256 34 127 108 108 306 -37 384 -61 33 -116 41 -175 24z m141 -104 c92 -68 93 -189 2 -249 -41 -28 -117 -31 -162 -8 -82 43 -94 182 -21 248 44 40 133 45 181 9z"/> <path d="M715 1991 c-44 -11 -107 -46 -132 -73 -12 -12 -31 -43 -42 -68 -19 -41 -21 -65 -21 -279 0 -217 2 -238 21 -278 15 -32 80 -97 106 -108 1 0 12 -89 24 -198 25 -215 34 -242 91 -277 30 -19 47 -20 178 -18 127 3 148 6 172 23 39 29 61 83 53 128 -6 32 -11 37 -35 37 -24 0 -29 -5 -34 -33 -3 -19 -15 -43 -27 -55 -18 -20 -30 -22 -133 -22 -162 0 -152 -14 -183 245 -14 116 -30 216 -36 224 -7 7 -28 24 -48 37 -63 39 -69 65 -69 296 0 191 1 206 23 248 37 75 65 84 253 89 l162 3 43 44 43 44 -189 -1 c-105 -1 -203 -4 -220 -8z"/> <path d="M1918 1955 c20 -22 42 -43 47 -47 6 -4 80 -8 165 -8 182 0 210 -9 247 -80 22 -41 23 -54 23 -254 0 -239 -4 -253 -79 -301 -23 -14 -43 -35 -46 -48 -3 -12 -16 -109 -29 -216 -29 -245 -21 -234 -188 -229 -73 2 -121 7 -129 15 -7 7 -15 29 -18 50 -5 33 -10 38 -35 41 -67 8 -61 -92 9 -158 25 -24 32 -25 173 -28 132 -2 150 -1 179 17 55 34 62 56 89 267 l25 199 49 45 c77 71 80 84 80 350 0 249 -3 268 -57 338 -14 19 -49 45 -77 58 -47 21 -66 23 -258 26 l-207 3 37 -40z"/> <path d="M1265 1981 c-77 -20 -145 -79 -170 -150 -20 -56 -22 -490 -3 -554 12 -39 64 -101 116 -137 20 -14 22 -30 37 -285 17 -290 21 -306 77 -348 21 -16 52 -22 145 -29 128 -10 170 -4 218 34 48 37 55 72 72 351 14 247 17 263 37 277 47 32 102 98 114 137 15 51 16 461 1 531 -12 59 -63 123 -123 155 -38 21 -55 22 -266 24 -124 1 -238 -2 -255 -6z m520 -121 c19 -19 40 -50 45 -70 13 -48 13 -451 -1 -487 -13 -36 -54 -78 -89 -93 -16 -7 -33 -24 -39 -38 -6 -15 -15 -112 -21 -217 -17 -309 -20 -343 -42 -370 -19 -24 -24 -25 -133 -25 -94 0 -116 3 -135 18 -29 23 -34 58 -51 357 -15 257 -8 236 -102 308 -54 40 -59 74 -55 331 3 214 4 222 27 254 50 71 58 73 323 70 l237 -3 36 -35z"/> </g> </svg> 