 <svg  version="1.0" xmlns="http://www.w3.org/2000/svg"  width="789.000000pt" height="840.000000pt" viewBox="0 0 789.000000 840.000000"  preserveAspectRatio="xMidYMid meet">  <g transform="translate(0.000000,840.000000) scale(0.100000,-0.100000)" fill="#ff0000" stroke="none"> <path d="M3359 8075 c-3 -2 -32 -9 -65 -14 -74 -12 -176 -40 -189 -52 -5 -5 -17 -9 -27 -9 -34 0 -218 -104 -312 -176 -112 -87 -220 -218 -289 -354 -46 -88 -87 -197 -87 -228 0 -10 -6 -24 -12 -31 -18 -17 -17 -634 0 -706 17 -73 21 -267 4 -273 -7 -2 -22 -25 -35 -50 -21 -45 -22 -58 -22 -307 l0 -260 39 -80 c29 -60 57 -98 112 -152 40 -40 84 -75 98 -79 15 -3 26 -10 26 -15 0 -5 6 -9 13 -9 6 -1 30 -9 52 -20 22 -11 47 -19 55 -20 30 0 79 -40 86 -67 23 -96 175 -357 251 -432 27 -26 33 -40 31 -64 -3 -34 -9 -37 -163 -82 -33 -9 -78 -23 -100 -30 -22 -7 -71 -23 -110 -35 -38 -12 -74 -26 -79 -31 -6 -5 -17 -9 -26 -9 -21 0 -204 -93 -225 -114 -9 -9 -20 -16 -24 -16 -19 0 -113 -102 -140 -152 -43 -81 -72 -238 -51 -277 19 -37 4 -58 -53 -71 -235 -54 -447 -169 -608 -329 -47 -47 -99 -106 -115 -131 -16 -25 -32 -47 -36 -50 -4 -3 -27 -45 -52 -93 -51 -98 -101 -240 -117 -331 -14 -77 -26 -687 -28 -1367 -1 -510 0 -527 19 -551 26 -34 94 -51 129 -33 57 29 59 36 65 240 3 105 10 516 15 915 10 765 8 741 57 890 50 154 185 333 329 440 96 71 314 170 374 170 11 0 23 4 26 10 3 5 17 10 30 10 13 0 60 9 105 19 45 11 89 17 98 14 37 -13 755 -361 796 -386 97 -60 192 -175 410 -497 28 -41 54 -79 58 -85 17 -22 95 -134 132 -189 27 -39 53 -65 81 -78 40 -20 42 -20 80 -1 36 16 114 109 205 243 8 12 35 50 60 85 25 34 79 111 120 170 150 214 222 291 321 344 35 18 226 115 424 215 339 170 363 181 415 181 50 -1 175 -26 225 -45 11 -5 49 -18 85 -31 260 -93 491 -306 572 -529 64 -176 68 -220 79 -850 5 -300 12 -697 16 -882 l8 -338 26 -26 c38 -38 99 -43 144 -13 19 13 39 36 44 50 5 16 6 197 0 455 -4 236 -8 594 -9 796 0 358 -17 659 -40 733 -5 17 -20 62 -32 100 -66 208 -201 389 -398 537 -90 67 -217 138 -310 174 -25 9 -59 23 -77 30 -17 8 -38 14 -48 14 -9 0 -29 7 -45 15 -30 15 -30 16 -30 103 0 173 -58 280 -205 384 -71 49 -315 168 -380 184 -16 4 -40 13 -54 20 -14 8 -36 14 -48 14 -12 0 -24 4 -27 9 -4 5 -25 12 -48 16 -22 4 -56 14 -74 21 -18 8 -44 14 -57 14 -13 0 -32 9 -42 20 -18 20 -18 21 2 48 48 65 93 132 93 138 0 3 13 26 30 50 42 63 107 202 115 247 11 57 37 83 90 90 65 9 170 57 224 101 81 68 128 126 164 205 28 61 31 79 38 221 4 85 10 182 14 215 3 36 0 89 -9 132 -12 67 -19 78 -71 135 l-57 62 7 305 c3 168 8 335 10 370 6 92 -13 265 -37 336 -68 204 -217 330 -441 371 -94 17 -99 19 -119 53 -30 49 -86 119 -128 159 -52 49 -165 122 -234 151 l-61 26 -526 3 c-289 1 -527 0 -530 -3z m1013 -244 c73 -22 108 -44 178 -109 74 -67 130 -162 130 -219 0 -38 14 -43 131 -43 208 0 321 -83 390 -285 11 -31 13 -103 11 -320 -1 -154 -5 -329 -10 -390 l-7 -110 -55 0 -55 0 -6 115 c-8 150 -26 215 -76 276 -23 27 -90 69 -125 77 -47 12 -167 162 -220 273 -31 66 -69 94 -129 94 -44 0 -54 -4 -101 -48 -66 -59 -156 -128 -228 -173 -122 -78 -112 -73 -225 -124 -16 -8 -41 -16 -55 -20 -14 -3 -34 -10 -45 -15 -22 -10 -97 -23 -240 -43 -104 -14 -444 -15 -621 -3 -116 9 -123 8 -168 -15 -76 -38 -90 -74 -91 -239 -1 -75 -5 -141 -9 -148 -10 -17 -120 -16 -135 1 -7 9 -11 138 -13 403 -3 386 -3 389 20 454 68 186 163 319 312 435 96 74 262 150 375 170 126 24 993 28 1067 6z m162 -986 c28 -43 194 -211 238 -241 85 -58 78 2 78 -633 0 -612 -3 -653 -57 -802 -47 -131 -172 -305 -282 -394 -106 -85 -193 -134 -314 -177 -56 -20 -81 -22 -262 -22 -183 0 -205 1 -264 22 -214 77 -402 223 -528 410 -42 63 -103 183 -103 203 0 9 -3 19 -7 23 -19 19 -33 141 -42 366 -13 306 -14 900 -2 919 8 12 37 13 178 6 331 -16 448 -12 593 20 36 7 81 17 100 20 19 3 44 10 55 14 11 5 47 16 80 26 33 10 71 24 85 31 14 7 64 31 112 54 47 24 131 73 185 110 54 37 108 68 119 69 13 1 28 -9 38 -24z m-1780 -742 c3 -10 8 -149 12 -308 6 -263 5 -292 -10 -304 -14 -12 -22 -11 -52 5 -50 26 -131 117 -145 162 -6 20 -13 107 -16 192 -4 147 -3 157 19 194 29 49 79 76 140 76 36 0 48 -4 52 -17z m2498 -14 c20 -10 46 -32 58 -49 20 -28 21 -39 17 -163 -5 -138 -15 -201 -42 -254 -37 -74 -160 -162 -206 -148 l-22 7 7 301 c4 166 12 310 18 320 8 17 17 18 71 12 34 -4 78 -16 99 -26z m-1835 -1635 c32 -14 72 -31 88 -39 112 -49 172 -64 313 -77 238 -21 431 11 607 101 102 52 95 66 95 -207 0 -262 1 -257 -69 -354 -70 -98 -270 -237 -342 -238 -14 0 -30 -5 -37 -12 -20 -20 -244 -15 -317 6 -79 23 -207 97 -268 155 -60 57 -130 161 -153 227 -14 42 -16 76 -10 247 3 109 8 203 11 208 9 13 19 11 82 -17z m1513 -72 c30 -8 69 -21 87 -29 17 -7 37 -13 45 -13 8 0 18 -4 24 -8 5 -4 36 -18 69 -31 174 -66 277 -137 315 -216 26 -53 18 -95 -24 -132 -36 -31 -32 -29 -254 -144 -86 -45 -195 -102 -242 -127 -47 -25 -100 -52 -117 -61 -18 -8 -33 -19 -33 -23 0 -4 -16 -8 -35 -8 l-35 0 0 404 c0 398 0 405 21 419 18 13 27 13 72 0 29 -8 77 -22 107 -31z m-1826 22 c14 -5 16 -50 16 -400 0 -310 -3 -396 -13 -399 -7 -3 -55 16 -107 43 -52 27 -195 100 -318 163 -293 150 -324 180 -268 267 46 72 128 134 251 190 28 13 58 27 67 33 10 5 23 9 29 9 6 0 25 6 42 14 30 12 135 45 222 68 39 10 58 16 62 17 1 1 8 -2 17 -5z m276 -823 c0 -24 226 -152 293 -166 17 -4 53 -14 78 -22 35 -11 82 -13 195 -10 173 5 221 16 347 78 60 30 67 34 144 87 34 23 67 42 72 42 6 0 11 -22 11 -50 0 -42 -4 -54 -27 -73 -72 -59 -130 -117 -171 -172 -26 -33 -51 -65 -57 -72 -5 -6 -37 -50 -70 -97 -33 -48 -87 -124 -120 -171 -33 -46 -77 -109 -98 -140 -48 -69 -56 -66 -134 53 -32 48 -60 89 -63 92 -3 3 -27 39 -55 80 -40 62 -116 169 -152 215 -5 6 -19 24 -31 40 -38 50 -154 164 -173 170 -20 7 -39 54 -39 96 0 24 4 29 25 29 14 0 25 -4 25 -9z"/> <path d="M2039 2695 c-62 -34 -59 13 -59 -857 l0 -794 29 -32 c26 -28 36 -32 80 -32 45 0 52 3 80 37 l31 38 0 781 c0 861 3 821 -62 856 -40 21 -65 22 -99 3z"/> <path d="M5732 2657 l-32 -33 0 -781 c0 -837 -1 -822 50 -868 15 -14 36 -20 66 -20 35 0 49 6 73 30 18 18 31 42 33 60 1 17 1 377 0 802 l-2 772 -34 35 c-28 31 -40 36 -78 36 -37 0 -49 -5 -76 -33z"/> <path d="M4351 2348 c-64 -32 -131 -102 -131 -137 0 -10 -5 -22 -11 -28 -14 -14 -14 -212 1 -227 5 -5 10 -17 10 -26 0 -58 181 -288 316 -400 103 -87 207 -160 225 -160 6 0 56 35 111 77 104 80 233 201 307 288 97 114 159 264 149 362 -10 100 -110 246 -180 260 -15 3 -31 10 -34 14 -3 5 -37 9 -75 9 -88 0 -159 -31 -218 -95 -23 -25 -49 -45 -57 -45 -9 0 -43 25 -76 55 -33 31 -73 59 -89 62 -16 3 -32 10 -35 14 -3 5 -38 9 -77 9 -61 0 -82 -5 -136 -32z"/> </g> </svg> 